<svg width="35" height="35" viewBox="0 0 35 35" fill="none" xmlns="http://www.w3.org/2000/svg">
<path d="M2.03125 14.6886C1.65829 14.6886 1.3006 14.5404 1.03688 14.2767C0.773158 14.013 0.625 13.6553 0.625 13.2823V2.03516C0.625 1.6622 0.773158 1.30451 1.03688 1.04079C1.3006 0.777065 1.65829 0.628906 2.03125 0.628906H13.2813C13.6542 0.628906 14.0119 0.777065 14.2756 1.04079C14.5393 1.30451 14.6875 1.6622 14.6875 2.03516V13.2823C14.6875 13.6553 14.5393 14.013 14.2756 14.2767C14.0119 14.5404 13.6542 14.6886 13.2813 14.6886H2.03125ZM21.7188 14.6886C21.3458 14.6886 20.9881 14.5404 20.7244 14.2767C20.4607 14.013 20.3125 13.6553 20.3125 13.2823V2.03516C20.3125 1.6622 20.4607 1.30451 20.7244 1.04079C20.9881 0.777065 21.3458 0.628906 21.7188 0.628906H32.9659C33.3389 0.628906 33.6966 0.777065 33.9603 1.04079C34.224 1.30451 34.3722 1.6622 34.3722 2.03516V13.2823C34.3722 13.6553 34.224 14.013 33.9603 14.2767C33.6966 14.5404 33.3389 14.6886 32.9659 14.6886H21.7188ZM2.03125 34.3761C1.65829 34.3761 1.3006 34.2279 1.03688 33.9642C0.773158 33.7005 0.625 33.3428 0.625 32.9698V21.7198C0.625 21.3469 0.773158 20.9892 1.03688 20.7255C1.3006 20.4618 1.65829 20.3136 2.03125 20.3136H13.2813C13.6542 20.3136 14.0119 20.4618 14.2756 20.7255C14.5393 20.9892 14.6875 21.3469 14.6875 21.7198V32.9698C14.6875 33.3428 14.5393 33.7005 14.2756 33.9642C14.0119 34.2279 13.6542 34.3761 13.2813 34.3761H2.03125ZM21.7188 34.3761C21.3458 34.3761 20.9881 34.2279 20.7244 33.9642C20.4607 33.7005 20.3125 33.3428 20.3125 32.9698V21.7198C20.3125 21.3469 20.4607 20.9892 20.7244 20.7255C20.9881 20.4618 21.3458 20.3136 21.7188 20.3136H32.9659C33.3389 20.3136 33.6966 20.4618 33.9603 20.7255C34.224 20.9892 34.3722 21.3469 34.3722 21.7198V32.9698C34.3722 33.3428 34.224 33.7005 33.9603 33.9642C33.6966 34.2279 33.3389 34.3761 32.9659 34.3761H21.7188Z" fill="#01C8FF"/>
</svg>
