<?xml version="1.0" encoding="UTF-8"?>
<svg version="1.1" xmlns="http://www.w3.org/2000/svg" width="244" height="254">
<path d="M0 0 C4.09037819 3.92866557 5.82844694 7.98836407 6.3203125 13.60546875 C6.14108914 19.39040057 3.88618976 22.58587 0.01171875 26.74609375 C-4.69389409 30.8087036 -8.90516556 30.80191304 -14.9609375 30.69140625 C-20.23451314 30.11880621 -22.80198274 27.59301959 -26.1875 23.75 C-29.66720395 18.85263888 -29.57350114 14.25669707 -28.875 8.375 C-26.71629498 2.74561837 -23.23149083 -0.83516103 -17.875 -3.625 C-11.78947862 -5.92762971 -4.98189485 -3.87363434 0 0 Z " fill="#3D2179" transform="translate(116.875,127.625)"/>
<path d="M0 0 C3.36936022 2.5165693 5.25844261 5.22845284 6.57421875 9.17578125 C7.07864114 14.44327405 7.24588465 18.80757293 4.88671875 23.61328125 C1.10687697 27.80175458 -2.08918957 30.85168556 -7.87890625 31.4140625 C-14.35460465 31.58590366 -18.29241138 31.26152462 -23.42578125 27.17578125 C-27.62193659 22.01128237 -28.05099945 17.57189421 -27.8125 10.984375 C-27.1124341 5.90005803 -24.65366496 3.3390395 -21.05078125 -0.07421875 C-13.82561613 -4.8909955 -7.25013485 -4.48042041 0 0 Z " fill="#D40EE6" transform="translate(162.42578125,126.82421875)"/>
<path d="M0 0 C4.83616297 2.56157203 8.85104781 6.09258579 10.66796875 11.3515625 C11.74988694 17.031633 10.33545626 21.15642878 7.5703125 26.14453125 C5.11823113 29.46170215 2.72752645 30.68354395 -1.03515625 32.31640625 C-2.02515625 32.81140625 -2.02515625 32.81140625 -3.03515625 33.31640625 C-9.01949904 33.91484053 -13.15793222 32.65991203 -18.03515625 29.31640625 C-22.09576176 25.47637684 -24.15211543 21.73633173 -24.41015625 16.12890625 C-24.35816508 10.81714141 -22.36035519 7.35414783 -19.03515625 3.31640625 C-13.89278528 -1.37222611 -6.55321806 -2.20117689 0 0 Z " fill="#D60CE8" transform="translate(112.03515625,78.68359375)"/>
<path d="M0 0 C5.23219836 2.51920662 9.38537029 6.77074058 12 12 C12.59029191 17.67588376 12.31441063 22.18875876 9 27 C4.60736999 31.42378342 1.09530738 34.10222653 -5.3125 34.3125 C-11.45371563 34.22291987 -14.49979824 31.50020176 -18.75 27.25 C-21.3272066 23.52736825 -22.81225486 20.54855262 -23 16 C-21.79581183 9.85409622 -18.60405634 5.28841315 -13.9375 1.1875 C-9.32332011 -0.67780676 -4.9029479 -0.64265444 0 0 Z " fill="#E76986" transform="translate(157,78)"/>
<path d="M0 0 C2.6258382 1.78870171 3.34201385 3.11189509 5 6 C5.619038 9.46661281 5.80972674 11.6722863 3.9375 14.7421875 C2.16814744 16.94334633 0.54477916 18.72761042 -2 20 C-9.13230769 20.70153846 -9.13230769 20.70153846 -12.9375 17.625 C-16.1398393 13.54929544 -16.52171797 11.21717968 -16 6 C-11.91144457 -0.86511172 -7.42772528 -2.06183409 0 0 Z " fill="#D20FE4" transform="translate(71,46)"/>
<path d="M0 0 C3.18999609 1.89036805 5.38427071 3.32480355 6.69921875 6.90234375 C7.55709514 11.70829646 6.75215854 14.87176219 4 19 C0.28957469 21.47361688 -2.69862675 21.54607278 -7 21 C-9.9091534 19.73515069 -11.46015566 18.74549933 -13.3125 16.1875 C-14.24508259 13.22019177 -14.37237901 11.10315844 -14 8 C-10.41929156 1.57941934 -7.48964493 -0.88860194 0 0 Z " fill="#3D217A" transform="translate(153,45)"/>
<path d="M0 0 C3.11141288 1.6437653 5.28893717 3.03036886 7.375 5.875 C8.25151896 8.85516446 8.43422592 10.89838626 8 14 C6.17452064 16.92483867 4.13141589 19.43429205 1 21 C-6.75862069 21.43103448 -6.75862069 21.43103448 -10 19 C-13.1529475 15.05881562 -13.53255319 11.97049643 -13 7 C-10.09057352 0.76551469 -6.76860923 -0.68833314 0 0 Z " fill="#D70CEB" transform="translate(68,170)"/>
<path d="M0 0 C3.25938326 2.66072103 4.74833504 4.0649005 5.2890625 8.22265625 C5.11438811 12.24688538 4.38490484 15.22393323 1.5 18.125 C-2.46183369 20.24741091 -4.52909364 20.55502446 -8.875 19.76953125 C-12.74665002 18.36748152 -13.94473113 16.58014577 -16 13 C-16.6172567 9.54336249 -16.79126472 7.34184054 -14.97265625 4.2578125 C-10.76094842 -1.0932327 -6.41195828 -1.9796143 0 0 Z " fill="#E96B87" transform="translate(113,46)"/>
<path d="M0 0 C4.21296572 1.27893602 5.88804529 2.52867892 8.5 6.0625 C9.71043896 10.22338394 9.78411902 12.30958461 8.25 16.375 C6.5 19.0625 6.5 19.0625 3.5 21.0625 C-1.20547252 21.8996159 -4.52671316 21.7316347 -8.5 19 C-10.89441358 15.48320506 -11.5 13.31023336 -11.5 9.0625 C-9.27556715 3.74857707 -5.92340086 0.10577502 0 0 Z " fill="#DA6681" transform="translate(192.5,127.9375)"/>
<path d="M0 0 C3.30144911 1.99332776 5.31705679 3.27276796 6.73828125 6.8671875 C7.49419896 10.79185119 7.09997659 13.42287321 5.1875 16.9375 C3 20 3 20 1 21 C-3.23390162 21.40710593 -5.51588352 21.25575965 -9.3125 19.25 C-13.23793395 15.96359018 -13.23793395 15.96359018 -14 13 C-13.9188061 8.5343354 -13.47785505 6.56362391 -10.5625 3.125 C-6.85098036 0.04715444 -4.8320847 -0.55754823 0 0 Z " fill="#EC6987" transform="translate(195,45)"/>
<path d="M0 0 C2.79208823 3.15004826 3.90873032 5.05079533 4.3125 9.25 C4 12 4 12 3 14 C2.34 14 1.68 14 1 14 C0.690625 14.639375 0.38125 15.27875 0.0625 15.9375 C-1 18 -1 18 -2 19 C-8.79355532 19.69087003 -8.79355532 19.69087003 -11.828125 17.953125 C-15.05175686 15.29284628 -16.76637336 13.4351351 -17.4375 9.3125 C-16.83090358 4.7196985 -14.53088983 1.93970874 -11 -1 C-6.88982927 -2.52108681 -4.02124142 -1.6515813 0 0 Z " fill="#E86B88" transform="translate(114,172)"/>
<path d="M0 0 C3.13966158 2.71538299 4.76497814 4.55629431 5.4375 8.6875 C4.8995482 12.76056361 3.62604932 14.67990048 0.84375 17.6328125 C-1.81399658 19.60359916 -3.78216137 19.86921261 -7.03515625 19.55078125 C-10.78094008 18.50077027 -12.41638852 16.96170097 -15 14 C-16.20266683 10.03827398 -16.47141915 8.03712214 -14.75 4.25 C-11.02352941 -0.54117647 -11.02352941 -0.54117647 -8.1875 -1.8125 C-5.01268427 -2.08462706 -2.90463266 -1.27077679 0 0 Z " fill="#D010E2" transform="translate(155,172)"/>
<path d="M0 0 C3.4855894 2.63355644 4.7949595 4.28235825 6 8.5 C6 13.2022816 4.43101368 15.17870987 1.625 18.75 C-0.64587347 20.49682575 -2.13145482 20.86657929 -5 21 C-9.11259851 19.43721257 -11.8331502 17.8775207 -14 14 C-15.26375712 10.5698021 -15.12700938 9.31752345 -13.75 5.875 C-10.14886747 -0.0411463 -6.97440474 -1.95283333 0 0 Z " fill="#3D217A" transform="translate(196,171)"/>
<path d="M0 0 C4.04212164 2.47018545 5.67811019 3.93965709 7.0625 8.5 C6.99255562 12.4168851 6.37742783 13.94330708 4 17 C3.608125 17.598125 3.21625 18.19625 2.8125 18.8125 C-0.28501577 20.84190688 -3.4983241 20.69372824 -7 20 C-9.80195123 18.64712655 -10.85849988 17.45489039 -13 15 C-14.280564 10.85699884 -14.27599125 8.76987033 -12.8125 4.6875 C-9.43686598 -0.31775044 -5.90768732 -0.71299675 0 0 Z " fill="#3D2278" transform="translate(69,129)"/>
<path d="M0 0 C2.88969619 1.57048706 4.50711198 2.71575289 5.703125 5.83203125 C6.3348496 8.89121614 6.53456822 11.02519913 5.00390625 13.81640625 C2.33926904 17.09778441 0.44720998 18.83554432 -3.75 19.3125 C-7.85767229 18.91753151 -9.82926614 17.5942368 -13 15 C-14.95317335 12.45238259 -15.01249061 11.29352945 -14.875 8.0625 C-13.86699601 4.53448605 -12.54574383 2.62061865 -10 0 C-6.18323682 -1.27225439 -3.91280349 -0.87700768 0 0 Z " fill="#3D2277" transform="translate(196,88)"/>
<path d="M0 0 C2.91966192 2.28495281 4.59188033 4.0052083 6 7.4375 C6 11.06852829 5.02289705 12.9982818 3 16 C-0.43985769 18.4235361 -2.40905759 19 -6.625 19 C-10.7257109 17.78497455 -11.8768214 16.6747322 -14 13 C-15 10.0625 -15 10.0625 -15 7 C-13.39355132 3.90609883 -11.92283573 1.7319042 -9.1875 -0.4375 C-5.781792 -1.31325348 -3.38719708 -0.89136765 0 0 Z " fill="#3A2172" transform="translate(70,88)"/>
<path d="M0 0 C3.30144911 1.99332776 5.31705679 3.27276796 6.73828125 6.8671875 C7.49419896 10.79185119 7.09997659 13.42287321 5.1875 16.9375 C3 20 3 20 1 21 C-3.23390162 21.40710593 -5.51588352 21.25575965 -9.3125 19.25 C-13.23793395 15.96359018 -13.23793395 15.96359018 -14 13 C-13.9188061 8.5343354 -13.47785505 6.56362391 -10.5625 3.125 C-6.85098036 0.04715444 -4.8320847 -0.55754823 0 0 Z M-10 6 C-11.06904594 10.34745348 -11.4110102 12.76696941 -10 17 C-8.04489071 19.36553865 -8.04489071 19.36553865 -4.4375 19.4375 C-0.94074886 19.34886432 -0.94074886 19.34886432 1 17 C1 16.01 1 15.02 1 14 C1.99 13.67 2.98 13.34 4 13 C3.65544802 9.89903219 3.15182706 8.20062862 1.25 5.6875 C-0.87349856 3.81673773 -0.87349856 3.81673773 -3.5 3.625 C-7.0666893 4.08978549 -7.0666893 4.08978549 -10 6 Z " fill="#DC6F89" transform="translate(195,45)"/>
<path d="M0 0 C2.6258382 1.78870171 3.34201385 3.11189509 5 6 C5.619038 9.46661281 5.80972674 11.6722863 3.9375 14.7421875 C2.16814744 16.94334633 0.54477916 18.72761042 -2 20 C-9.13230769 20.70153846 -9.13230769 20.70153846 -12.9375 17.625 C-16.1398393 13.54929544 -16.52171797 11.21717968 -16 6 C-11.91144457 -0.86511172 -7.42772528 -2.06183409 0 0 Z M-7 1 C-7 1.66 -7 2.32 -7 3 C-7.928125 3.185625 -7.928125 3.185625 -8.875 3.375 C-11.19120832 3.87197356 -11.19120832 3.87197356 -13 6 C-13.37398428 9.36585848 -13.11386866 11.67262761 -12 14.875 C-10.25160647 17.16838314 -10.25160647 17.16838314 -8.01953125 17.30859375 C-6.01038901 17.31214975 -4.00242986 17.16413359 -2 17 C-2 16.34 -2 15.68 -2 15 C-1.34 15 -0.68 15 0 15 C2.03844169 10.92311662 2.07759755 8.40835361 1 4 C0.67 3.34 0.34 2.68 0 2 C-2.32156597 1.59270772 -4.6568787 1.25561323 -7 1 Z " fill="#62106B" transform="translate(71,46)"/>
<path d="M0 0 C3.4855894 2.63355644 4.7949595 4.28235825 6 8.5 C6 13.2022816 4.43101368 15.17870987 1.625 18.75 C-0.64587347 20.49682575 -2.13145482 20.86657929 -5 21 C-9.11259851 19.43721257 -11.8331502 17.8775207 -14 14 C-15.26375712 10.5698021 -15.12700938 9.31752345 -13.75 5.875 C-10.14886747 -0.0411463 -6.97440474 -1.95283333 0 0 Z M-11 7 C-11.96101954 10.91272241 -12.27782434 13.16652698 -11 17 C-7.04 17 -3.08 17 1 17 C1 15.68 1 14.36 1 13 C1.66 13 2.32 13 3 13 C3.33 10.69 3.66 8.38 4 6 C2.68 5.67 1.36 5.34 0 5 C0 4.34 0 3.68 0 3 C-5.07044482 2.52833071 -7.5547251 3.1609794 -11 7 Z " fill="#2E1D54" transform="translate(196,171)"/>
<path d="M0 0 C3.11141288 1.6437653 5.28893717 3.03036886 7.375 5.875 C8.25151896 8.85516446 8.43422592 10.89838626 8 14 C6.17452064 16.92483867 4.13141589 19.43429205 1 21 C-6.75862069 21.43103448 -6.75862069 21.43103448 -10 19 C-13.1529475 15.05881562 -13.53255319 11.97049643 -13 7 C-10.09057352 0.76551469 -6.76860923 -0.68833314 0 0 Z M-9 6 C-9.66 6.66 -10.32 7.32 -11 8 C-11 9.32 -11 10.64 -11 12 C-9.35178756 13.03013277 -7.68496298 14.03114628 -6 15 C-6 15.99 -6 16.98 -6 18 C-5.34 18 -4.68 18 -4 18 C-4 18.66 -4 19.32 -4 20 C-2.68 20 -1.36 20 0 20 C0 19.34 0 18.68 0 18 C1.32 18 2.64 18 4 18 C6.21462816 13.16023073 6.21462816 13.16023073 6 8 C0.77350896 2.89928013 -2.72833798 1.81889198 -9 6 Z " fill="#66136F" transform="translate(68,170)"/>
<path d="M0 0 C4.32533927 2.29100388 7.34400454 5.23098042 9.96484375 9.31640625 C10.75426638 12.32962728 11.19609969 15.20334556 10.96484375 18.31640625 C10.30484375 19.30640625 9.64484375 20.29640625 8.96484375 21.31640625 C8.96484375 17.68640625 8.96484375 14.05640625 8.96484375 10.31640625 C7.64484375 9.98640625 6.32484375 9.65640625 4.96484375 9.31640625 C4.96484375 7.99640625 4.96484375 6.67640625 4.96484375 5.31640625 C1.99484375 4.82140625 1.99484375 4.82140625 -1.03515625 4.31640625 C-1.03515625 3.65640625 -1.03515625 2.99640625 -1.03515625 2.31640625 C-8.96798534 1.97989963 -8.96798534 1.97989963 -16.1640625 4.7421875 C-20.62224851 10.13893899 -21.37871468 16.52563138 -22.03515625 23.31640625 C-24.74521434 19.25131912 -24.79885475 16.09145038 -24.03515625 11.31640625 C-22.07361002 6.79156456 -19.39728173 2.78827735 -15.03515625 0.31640625 C-10.2045085 -1.29380967 -4.88734505 -1.64162262 0 0 Z " fill="#81168A" transform="translate(112.03515625,78.68359375)"/>
<path d="M0 0 C4.04212164 2.47018545 5.67811019 3.93965709 7.0625 8.5 C6.99255562 12.4168851 6.37742783 13.94330708 4 17 C3.608125 17.598125 3.21625 18.19625 2.8125 18.8125 C-0.28501577 20.84190688 -3.4983241 20.69372824 -7 20 C-9.80195123 18.64712655 -10.85849988 17.45489039 -13 15 C-14.280564 10.85699884 -14.27599125 8.76987033 -12.8125 4.6875 C-9.43686598 -0.31775044 -5.90768732 -0.71299675 0 0 Z M-5.5 2.25 C-6.2940625 2.29640625 -7.088125 2.3428125 -7.90625 2.390625 C-10.19360099 2.80440731 -10.19360099 2.80440731 -11.28125 5.046875 C-11.5184375 5.69140625 -11.755625 6.3359375 -12 7 C-11.67 7.33 -11.34 7.66 -11 8 C-10.95907063 10.33297433 -10.95758277 12.66705225 -11 15 C-9.68 15 -8.36 15 -7 15 C-7 15.66 -7 16.32 -7 17 C-6.01 16.67 -5.02 16.34 -4 16 C-4 15.01 -4 14.02 -4 13 C-1.03 13.33 1.94 13.66 5 14 C5.56590975 8.33438937 5.56590975 8.33438937 3.125 3.5 C0.22326782 1.45171846 -2.03917033 2.00279788 -5.5 2.25 Z " fill="#291A4C" transform="translate(69,129)"/>
<path d="M0 0 C2.88969619 1.57048706 4.50711198 2.71575289 5.703125 5.83203125 C6.3348496 8.89121614 6.53456822 11.02519913 5.00390625 13.81640625 C2.33926904 17.09778441 0.44720998 18.83554432 -3.75 19.3125 C-7.85767229 18.91753151 -9.82926614 17.5942368 -13 15 C-14.95317335 12.45238259 -15.01249061 11.29352945 -14.875 8.0625 C-13.86699601 4.53448605 -12.54574383 2.62061865 -10 0 C-6.18323682 -1.27225439 -3.91280349 -0.87700768 0 0 Z M-9 1 C-9.45375 1.9075 -9.9075 2.815 -10.375 3.75 C-11.58333333 6.16666667 -12.79166667 8.58333333 -14 11 C-11.03524352 13.87491538 -9.55909865 14.95180184 -5.375 15.3125 C-2.01111559 15.13004628 -2.01111559 15.13004628 1 14 C1 13.34 1 12.68 1 12 C1.66 12 2.32 12 3 12 C3 9.36 3 6.72 3 4 C-1.22949995 1.58314288 -4.12335991 0.65166856 -9 1 Z " fill="#2A1B4E" transform="translate(196,88)"/>
<path d="M0 0 C2.79208823 3.15004826 3.90873032 5.05079533 4.3125 9.25 C4 12 4 12 3 14 C2.34 14 1.68 14 1 14 C0.690625 14.639375 0.38125 15.27875 0.0625 15.9375 C-1 18 -1 18 -2 19 C-8.79355532 19.69087003 -8.79355532 19.69087003 -11.828125 17.953125 C-15.05175686 15.29284628 -16.76637336 13.4351351 -17.4375 9.3125 C-16.83090358 4.7196985 -14.53088983 1.93970874 -11 -1 C-6.88982927 -2.52108681 -4.02124142 -1.6515813 0 0 Z M-12.4375 1.4375 C-12.953125 1.953125 -13.46875 2.46875 -14 3 C-13.67 3.66 -13.34 4.32 -13 5 C-13.33 5.66 -13.66 6.32 -14 7 C-13.59653364 10.16048648 -13.00847441 12.97457678 -12 16 C-8.50434664 18.33043558 -7.1134271 18.58763244 -3 18 C-0.51591299 15.85329312 -0.51591299 15.85329312 1 13 C1 11.68 1 10.36 1 9 C0.34 9 -0.32 9 -1 9 C-1 8.34 -1 7.68 -1 7 C-0.34 6.67 0.32 6.34 1 6 C-1.25471949 2.4826376 -2.41362671 1.16753523 -6.5 0 C-9.9691712 -0.29632459 -9.9691712 -0.29632459 -12.4375 1.4375 Z " fill="#964B5B" transform="translate(114,172)"/>
<path d="M0 0 C0.66 0.33 1.32 0.66 2 1 C0.625 3.5 0.625 3.5 -1 6 C-1.66 6 -2.32 6 -3 6 C-3.47728297 16.11588703 -3.47728297 16.11588703 0.5625 25.14453125 C3.99191577 27.75506408 7.13143138 27.4391922 11.25 27.25 C11.99507812 27.23195312 12.74015625 27.21390625 13.5078125 27.1953125 C15.33909701 27.14835649 17.16971649 27.07661652 19 27 C19.33 26.01 19.66 25.02 20 24 C21.32 24.33 22.64 24.66 24 25 C19.62269153 29.61391973 17.08307087 31.14444365 10.75 31.3125 C5.20601518 31.23926374 2.34975269 30.46204806 -2 27 C-6.1967845 21.83472677 -6.61275868 17.4026609 -6.3984375 10.81640625 C-5.70150251 5.89003244 -3.47314532 3.47314532 0 0 Z " fill="#600D6A" transform="translate(141,127)"/>
<path d="M0 0 C3.13966158 2.71538299 4.76497814 4.55629431 5.4375 8.6875 C4.8995482 12.76056361 3.62604932 14.67990048 0.84375 17.6328125 C-1.81399658 19.60359916 -3.78216137 19.86921261 -7.03515625 19.55078125 C-10.78094008 18.50077027 -12.41638852 16.96170097 -15 14 C-16.20266683 10.03827398 -16.47141915 8.03712214 -14.75 4.25 C-11.02352941 -0.54117647 -11.02352941 -0.54117647 -8.1875 -1.8125 C-5.01268427 -2.08462706 -2.90463266 -1.27077679 0 0 Z M-10.9375 2 C-12.33540317 5.94702073 -12.27423641 8.8178947 -12 13 C-11.67 13.66 -11.34 14.32 -11 15 C-10.34 15 -9.68 15 -9 15 C-9 15.66 -9 16.32 -9 17 C-6.29120665 18.35439668 -3.99066732 18.06501451 -1 18 C-0.690625 17.195625 -0.38125 16.39125 -0.0625 15.5625 C1 13 1 13 2 12 C2.54152067 6.44201968 2.54152067 6.44201968 0.4375 1.5 C-3.60306963 -0.98650439 -7.47652741 -1.57261686 -10.9375 2 Z " fill="#71147A" transform="translate(155,172)"/>
<path d="M0 0 C3.23724271 0.88288437 4.99927254 1.69433074 7.4375 3.9375 C7.1075 4.5975 6.7775 5.2575 6.4375 5.9375 C5.87546875 5.61007813 5.3134375 5.28265625 4.734375 4.9453125 C2.16890036 3.81964506 0.46907723 3.7306889 -2.3125 3.8125 C-3.51132813 3.83957031 -3.51132813 3.83957031 -4.734375 3.8671875 C-5.63929688 3.90199219 -5.63929688 3.90199219 -6.5625 3.9375 C-6.5625 5.2575 -6.5625 6.5775 -6.5625 7.9375 C-7.2225 7.9375 -7.8825 7.9375 -8.5625 7.9375 C-9.07279745 11.50958216 -8.72222979 12.71787154 -6.5625 15.6875 C-2.68653876 18.59447093 -0.34055143 18.69454823 4.4375 18.9375 C4.1075 19.5975 3.7775 20.2575 3.4375 20.9375 C-1.34390589 21.40626528 -4.50037419 21.66771149 -8.5625 18.875 C-10.95691358 15.35820506 -11.5625 13.18523336 -11.5625 8.9375 C-9.32615765 3.59512662 -5.97737748 -0.10486627 0 0 Z " fill="#763C47" transform="translate(192.5625,128.0625)"/>
<path d="M0 0 C0.99 0 1.98 0 3 0 C3.33 1.32 3.66 2.64 4 4 C13.90643646 5.7616543 13.90643646 5.7616543 23 3 C24.65549531 2.61500109 26.3222433 2.27206865 28 2 C28 1.34 28 0.68 28 0 C28.66 0 29.32 0 30 0 C29.32510427 2.69958293 28.66508238 4.51280712 26.37890625 6.1875 C21.15157125 9.14349817 18.04420563 10.48743594 12 10 C7.2655783 8.29842945 3.17927075 5.97408844 0 2 C0 1.34 0 0.68 0 0 Z " fill="#9F18AC" transform="translate(90,102)"/>
<path d="M0 0 C0.33 1.32 0.66 2.64 1 4 C2.32 4.33 3.64 4.66 5 5 C5 9.29 5 13.58 5 18 C4.01 18 3.02 18 2 18 C2 18.66 2 19.32 2 20 C1.34 20 0.68 20 0 20 C0 19.34 0 18.68 0 18 C-0.66 18 -1.32 18 -2 18 C-2 15 -2 15 -0.5 13.3125 C-0.005 12.879375 0.49 12.44625 1 12 C0.01 12 -0.98 12 -2 12 C-2.66 9.36 -3.32 6.72 -4 4 C-2.68 3.67 -1.36 3.34 0 3 C0 2.01 0 1.02 0 0 Z " fill="#D30FE7" transform="translate(116,84)"/>
<path d="M0 0 C3 2 3 2 3.875 5.75 C4.25329739 9.91127129 3.34434817 12.48347774 1 16 C-2.71042531 18.47361688 -5.69862675 18.54607278 -10 18 C-12.9091534 16.73515069 -14.46015566 15.74549933 -16.3125 13.1875 C-17.2093277 10.33395733 -17.25845515 7.97223418 -17 5 C-16.34 4.34 -15.68 3.68 -15 3 C-14.96261719 3.61488281 -14.92523438 4.22976562 -14.88671875 4.86328125 C-14.82097656 5.67152344 -14.75523437 6.47976562 -14.6875 7.3125 C-14.62949219 8.11300781 -14.57148438 8.91351563 -14.51171875 9.73828125 C-13.91793306 12.36272334 -13.04219706 13.30820672 -11 15 C-10.67 14.01 -10.34 13.02 -10 12 C-9.67 12.66 -9.34 13.32 -9 14 C-3.91696314 14.11320856 -3.91696314 14.11320856 1 13 C1.02708567 11.39592672 1.04643483 9.7917215 1.0625 8.1875 C1.07410156 7.29417969 1.08570313 6.40085937 1.09765625 5.48046875 C1.11009967 2.86586209 1.11009967 2.86586209 0 0 Z " fill="#1B1038" transform="translate(156,48)"/>
<path d="M0 0 C0.69222656 0.06703125 1.38445312 0.1340625 2.09765625 0.203125 C3.9375 0.75 3.9375 0.75 5.9375 3.75 C3.95182292 3.45703125 1.96614583 3.1640625 -0.01953125 2.87109375 C-2.2650342 2.61095201 -2.2650342 2.61095201 -5.0625 3.75 C-5.86813638 5.85584438 -5.86813638 5.85584438 -6.25 8.3125 C-6.40855469 9.13878906 -6.56710938 9.96507812 -6.73046875 10.81640625 C-6.84003906 11.45449219 -6.94960937 12.09257813 -7.0625 12.75 C-8.0525 12.75 -9.0425 12.75 -10.0625 12.75 C-9.7325 14.07 -9.4025 15.39 -9.0625 16.75 C-10.5625 15.6875 -10.5625 15.6875 -12.0625 13.75 C-12.5647999 10.42226319 -12.77785126 7.98062343 -11.04296875 4.99609375 C-7.73577227 0.84960874 -5.21048994 -0.58435401 0 0 Z " fill="#A54F63" transform="translate(109.0625,45.25)"/>
<path d="M0 0 C2.31 0.33 4.62 0.66 7 1 C7.36363636 8.27272727 7.36363636 8.27272727 5.75 11.5 C4 13 4 13 0 13 C0 8.71 0 4.42 0 0 Z " fill="#D80DEB" transform="translate(150,175)"/>
<path d="M0 0 C2.86435065 2.86435065 2.74150779 4.99337074 3 9 C2.56813317 15.11811336 0.13611449 18.49729101 -4.24609375 22.65234375 C-7.6513803 25.26887796 -10.9229233 25.16235069 -15.0625 25.1875 C-16.12597656 25.20167969 -17.18945312 25.21585938 -18.28515625 25.23046875 C-21 25 -21 25 -23 23 C-22.43152344 23.01160156 -21.86304687 23.02320313 -21.27734375 23.03515625 C-16.39329516 23.09223194 -11.81496035 22.81956772 -7 22 C-7 21.34 -7 20.68 -7 20 C-6.34 20 -5.68 20 -5 20 C-4.67 19.01 -4.34 18.02 -4 17 C-3.01 17 -2.02 17 -1 17 C-1 15.68 -1 14.36 -1 13 C-0.34 13 0.32 13 1 13 C0.505 6.565 0.505 6.565 0 0 Z " fill="#211442" transform="translate(120,133)"/>
<path d="M0 0 C2.375 0.75 2.375 0.75 3.375 1.75 C3.625 4.6875 3.625 4.6875 3.375 7.75 C0.375 9.75 0.375 9.75 -2.3125 9.375 C-3.075625 9.16875 -3.83875 8.9625 -4.625 8.75 C-5.95341008 3.31559513 -5.95341008 3.31559513 -4.5 0.8125 C-2.625 -0.25 -2.625 -0.25 0 0 Z " fill="#70157B" transform="translate(34.625,133.25)"/>
<path d="M0 0 C3.125 -0.1875 3.125 -0.1875 6 0 C7.1875 2.25 7.1875 2.25 8 5 C6.625 7.3125 6.625 7.3125 5 9 C2.03 8.505 2.03 8.505 -1 8 C-1.625 5.6875 -1.625 5.6875 -2 3 C-1.34 2.01 -0.68 1.02 0 0 Z " fill="#591261" transform="translate(218,93)"/>
<path d="M0 0 C0 0.33 0 0.66 0 1 C-2.97 1 -5.94 1 -9 1 C-9 1.66 -9 2.32 -9 3 C-10.66279327 4.0064275 -12.32983484 5.00585407 -14 6 C-14.99 7.485 -14.99 7.485 -16 9 C-16.66 9 -17.32 9 -18 9 C-19.485 15.435 -19.485 15.435 -21 22 C-23.11360676 17.77278647 -23.10834542 16.49245607 -21.828125 12.09375 C-20.06247958 7.62966536 -17.39962072 4.27612478 -13.875 1.0625 C-9.33501842 -0.61531928 -4.78632237 -0.22632347 0 0 Z " fill="#723742" transform="translate(157,78)"/>
<path d="M0 0 C2.5625 0.1875 2.5625 0.1875 4.5625 2.1875 C4.8125 4.6875 4.8125 4.6875 4.5625 7.1875 C3.9025 7.8475 3.2425 8.5075 2.5625 9.1875 C-0.73464793 8.85778521 -2.0601839 8.5648161 -4.4375 6.1875 C-3.71780303 0.28598485 -3.71780303 0.28598485 0 0 Z " fill="#571160" transform="translate(107.4375,194.8125)"/>
<path d="M0 0 C-0.7425 0.61875 -1.485 1.2375 -2.25 1.875 C-5.93580274 5.49779756 -7.33513984 10.21003921 -9 15 C-12 11.3671875 -12 11.3671875 -12 8.0625 C-10.76475684 4.27956783 -9.00013055 2.56108705 -6 0 C-3.50907189 -1.24546405 -2.58919267 -0.7767578 0 0 Z " fill="#301E5F" transform="translate(67,88)"/>
<path d="M0 0 C0.66 0.33 1.32 0.66 2 1 C3.13713688 5.71099565 3.58282744 8.63659609 1.1875 12.9375 C-1 16 -1 16 -3 17 C-6.5 17.1875 -6.5 17.1875 -10 17 C-10.66 16.34 -11.32 15.68 -12 15 C-10.329375 14.87625 -10.329375 14.87625 -8.625 14.75 C-7.42875 14.5025 -6.2325 14.255 -5 14 C-3.6237206 12.08235826 -3.6237206 12.08235826 -3 10 C-2.34 9.67 -1.68 9.34 -1 9 C-0.53348793 6.87423218 -0.53348793 6.87423218 -0.375 4.4375 C-0.30023438 3.61121094 -0.22546875 2.78492188 -0.1484375 1.93359375 C-0.09945312 1.29550781 -0.05046875 0.65742187 0 0 Z " fill="#8A4654" transform="translate(199,49)"/>
<path d="M0 0 C0.99 0 1.98 0 3 0 C2.67 0.99 2.34 1.98 2 3 C1.93197033 4.72795352 1.91504355 6.45835365 1.9375 8.1875 C1.95103516 9.53908203 1.95103516 9.53908203 1.96484375 10.91796875 C1.97644531 11.60503906 1.98804688 12.29210937 2 13 C2.66 13 3.32 13 4 13 C4 13.66 4 14.32 4 15 C6.64 15.33 9.28 15.66 12 16 C12 16.33 12 16.66 12 17 C4.23214286 17.66964286 4.23214286 17.66964286 0.5625 14.9375 C-2.49422915 11.43344463 -3.08254987 9.62279272 -3 5 C-1.75 2.0625 -1.75 2.0625 0 0 Z " fill="#B823C7" transform="translate(142,174)"/>
<path d="M0 0 C2.375 0.6875 2.375 0.6875 3.375 1.6875 C3.625 4.125 3.625 4.125 3.375 6.6875 C0.375 8.6875 0.375 8.6875 -2.3125 8.3125 C-3.075625 8.10625 -3.83875 7.9 -4.625 7.6875 C-4.955 5.7075 -5.285 3.7275 -5.625 1.6875 C-2.625 -0.3125 -2.625 -0.3125 0 0 Z " fill="#7B1983" transform="translate(108.625,30.3125)"/>
<path d="M0 0 C4.55555556 0.55555556 4.55555556 0.55555556 6 2 C6.1875 4.4375 6.1875 4.4375 6 7 C4 9 4 9 1.5 9.3125 C0.2625 9.1578125 0.2625 9.1578125 -1 9 C-3 6 -3 6 -2.75 3.9375 C-2 2 -2 2 0 0 Z " fill="#703B44" transform="translate(148,195)"/>
<path d="M0 0 C2.5625 0.1875 2.5625 0.1875 4.5625 2.1875 C4.875 4.6875 4.875 4.6875 4.5625 7.1875 C1.5625 9.1875 1.5625 9.1875 -0.5 8.9375 C-2.4375 8.1875 -2.4375 8.1875 -4.4375 6.1875 C-3.71780303 0.28598485 -3.71780303 0.28598485 0 0 Z " fill="#A25667" transform="translate(34.4375,92.8125)"/>
<path d="M0 0 C2.375 0.75 2.375 0.75 3.375 1.75 C3.625 4.1875 3.625 4.1875 3.375 6.75 C0.375 8.75 0.375 8.75 -2.3125 8.375 C-3.075625 8.16875 -3.83875 7.9625 -4.625 7.75 C-5.3125 5.4375 -5.3125 5.4375 -5.625 2.75 C-3.9659358 -0.015107 -3.22812218 -0.30744021 0 0 Z " fill="#1F1639" transform="translate(150.625,30.25)"/>
<path d="M0 0 C0.66 0.33 1.32 0.66 2 1 C1.69964844 1.73863281 1.39929688 2.47726563 1.08984375 3.23828125 C-1.67831797 10.62317369 -2.40614491 16.23563465 -1 24 C-4.46112211 20.68936146 -5.20128241 18.672278 -5.375 13.875 C-5.35958789 8.02610305 -3.6089544 4.49830388 0 0 Z " fill="#221644" transform="translate(93,128)"/>
<path d="M0 0 C4.875 0.875 4.875 0.875 6 2 C6.1875 4.4375 6.1875 4.4375 6 7 C5.34 7.66 4.68 8.32 4 9 C1.5 8.875 1.5 8.875 -1 8 C-2.3125 5.9375 -2.3125 5.9375 -3 4 C-2.01 2.68 -1.02 1.36 0 0 Z " fill="#2E2052" transform="translate(219,135)"/>
<path d="M0 0 C3.00418869 0.32477716 4.57970965 0.57970965 6.75 2.75 C8.19086502 5.34355703 8.85825305 7.02331409 9 10 C7.75 13.25 7.75 13.25 6 16 C5.01 16.33 4.02 16.66 3 17 C3.11859375 16.16855469 3.2371875 15.33710937 3.359375 14.48046875 C3.48828125 13.39378906 3.6171875 12.30710937 3.75 11.1875 C3.88921875 10.10855469 4.0284375 9.02960938 4.171875 7.91796875 C4.11515625 6.95503906 4.0584375 5.99210937 4 5 C2.09761607 3.20802672 2.09761607 3.20802672 0 2 C0 1.34 0 0.68 0 0 Z " fill="#311F59" transform="translate(67,88)"/>
<path d="M0 0 C0.33 1.32 0.66 2.64 1 4 C2.32 4 3.64 4 5 4 C6.0625 5.875 6.0625 5.875 7 8 C6.67 8.66 6.34 9.32 6 10 C6.66 10 7.32 10 8 10 C8 10.66 8 11.32 8 12 C9.32 12 10.64 12 12 12 C12 11.34 12 10.68 12 10 C13.32 10.33 14.64 10.66 16 11 C12.29873141 13.46751239 10.37776468 13.30721156 6 13 C2.61968411 11.81232145 2.06783183 11.10174775 0 8 C-0.25760279 5.30547479 -0.08900053 2.71451625 0 0 Z " fill="#9B16A7" transform="translate(56,178)"/>
<path d="M0 0 C3 3 3 3 3.28515625 5.0859375 C2.89265597 9.12111586 2.45971791 12.19001511 -0.5 15.125 C-4.55415613 17.29686936 -6.61680743 17.29023028 -11.046875 16.6875 C-13 16 -13 16 -15 13 C-14.34 13.20625 -13.68 13.4125 -13 13.625 C-8.41313638 14.19835795 -4.15684142 13.07842071 0 11 C0 7.37 0 3.74 0 0 Z " fill="#703640" transform="translate(115,49)"/>
<path d="M0 0 C0.99 0.66 1.98 1.32 3 2 C3.51579638 5.8168932 2.58076658 8.54207311 1 12 C-0.32 12 -1.64 12 -3 12 C-3 12.66 -3 13.32 -3 14 C-4.32 13.67 -5.64 13.34 -7 13 C-6.01 10.69 -5.02 8.38 -4 6 C-3.34 6 -2.68 6 -2 6 C-1.67 6.99 -1.34 7.98 -1 9 C-0.67 6.03 -0.34 3.06 0 0 Z " fill="#CB14DB" transform="translate(71,176)"/>
<path d="M0 0 C1.32 0.33 2.64 0.66 4 1 C-1.61028282 6.91354135 -1.61028282 6.91354135 -6.69921875 7.09765625 C-7.68535156 7.08605469 -8.67148438 7.07445312 -9.6875 7.0625 C-10.68136719 7.05347656 -11.67523438 7.04445312 -12.69921875 7.03515625 C-13.83810547 7.01775391 -13.83810547 7.01775391 -15 7 C-15 6.34 -15 5.68 -15 5 C-15.66 4.67 -16.32 4.34 -17 4 C-9.08 3.505 -9.08 3.505 -1 3 C-0.67 2.01 -0.34 1.02 0 0 Z " fill="#991AA6" transform="translate(161,151)"/>
<path d="M0 0 C3 2 3 2 3.875 5.3125 C4.0127156 9.37511023 3.42608335 10.82742947 1 14 C0.67 14.33 0.34 14.66 0 15 C-2.69082872 14.82364548 -5.32851446 14.38164079 -8 14 C-7.67 12.68 -7.34 11.36 -7 10 C-4.03 10.33 -1.06 10.66 2 11 C1.855625 9.741875 1.71125 8.48375 1.5625 7.1875 C1.48128906 6.47980469 1.40007812 5.77210938 1.31640625 5.04296875 C1.02829265 2.80603607 1.02829265 2.80603607 0 0 Z " fill="#38216C" transform="translate(72,132)"/>
<path d="M0 0 C0.66 0.66 1.32 1.32 2 2 C0.68 3.32 -0.64 4.64 -2 6 C-2 4.35 -2 2.7 -2 1 C-2.99 1.495 -2.99 1.495 -4 2 C-4 2.66 -4 3.32 -4 4 C-4.99 4.495 -4.99 4.495 -6 5 C-6 5.99 -6 6.98 -6 8 C-6.99 8.33 -7.98 8.66 -9 9 C-9.66 8.67 -10.32 8.34 -11 8 C-10.5047783 4.33535945 -9.9791794 2.29167646 -7 0 C-3.85179059 -1.04940314 -3.00659136 -1.066855 0 0 Z " fill="#CF10E2" transform="translate(68,174)"/>
<path d="M0 0 C0.99438971 0.94252811 1.97953494 1.89547303 2.9375 2.875 C2.6075 3.535 2.2775 4.195 1.9375 4.875 C1.586875 4.441875 1.23625 4.00875 0.875 3.5625 C-5.19202962 -1.72168709 -11.41845406 -1.45364529 -19.0625 -1.125 C-20.0525 -1.125 -21.0425 -1.125 -22.0625 -1.125 C-15.12913882 -7.03119656 -6.68534815 -5.73611007 0 0 Z " fill="#20133F" transform="translate(117.0625,128.125)"/>
<path d="M0 0 C2.9375 2.0625 2.9375 2.0625 5 4 C4.67 4.66 4.34 5.32 4 6 C3.21625 5.525625 2.4325 5.05125 1.625 4.5625 C-2.30454806 2.2234833 -4.40899009 1.90019544 -9 2 C-9.2475 2.7425 -9.495 3.485 -9.75 4.25 C-11.09147301 7.20124062 -12.60905526 8.84814974 -15 11 C-14.54842977 6.14562001 -13.40802387 3.50825987 -10 0 C-6.18323682 -1.27225439 -3.91280349 -0.87700768 0 0 Z " fill="#180E34" transform="translate(196,88)"/>
<path d="M0 0 C1.175625 0.185625 2.35125 0.37125 3.5625 0.5625 C3.5625 0.8925 3.5625 1.2225 3.5625 1.5625 C0.9225 2.2225 -1.7175 2.8825 -4.4375 3.5625 C-4.4375 4.2225 -4.4375 4.8825 -4.4375 5.5625 C-5.4275 6.0575 -5.4275 6.0575 -6.4375 6.5625 C-6.4375 8.2125 -6.4375 9.8625 -6.4375 11.5625 C-7.4275 12.0575 -7.4275 12.0575 -8.4375 12.5625 C-8.4375 11.5725 -8.4375 10.5825 -8.4375 9.5625 C-10.17706658 11.30206658 -9.80940386 13.7561622 -10 16.125 C-10.08378906 17.13691406 -10.16757813 18.14882812 -10.25390625 19.19140625 C-10.31449219 19.97386719 -10.37507813 20.75632812 -10.4375 21.5625 C-11.0975 21.5625 -11.7575 21.5625 -12.4375 21.5625 C-12.52986127 13.7645697 -11.7102549 8.15288687 -6.4921875 2.14453125 C-4.14791318 0.33952916 -2.92805606 0.01563019 0 0 Z " fill="#CA15DB" transform="translate(102.4375,80.4375)"/>
<path d="M0 0 C-0.556875 0.226875 -1.11375 0.45375 -1.6875 0.6875 C-4.81725537 2.46384764 -6.77101476 4.1518522 -9 7 C-9.42175125 9.80646818 -9.24238559 12.13985002 -9 15 C-11.00378112 13.34470255 -11.94765447 12.13834175 -12.875 9.6875 C-13.04583023 6.01465004 -11.97417995 4.06338267 -10 1 C-6.6633738 -1.64628974 -3.99299178 -0.90749813 0 0 Z " fill="#362360" transform="translate(194,173)"/>
<path d="M0 0 C3.86962494 1.28987498 5.53259128 2.75711997 8 6 C8.9375 9.625 8.9375 9.625 9 13 C8.01 14.485 8.01 14.485 7 16 C7 13.03 7 10.06 7 7 C5.68 6.67 4.36 6.34 3 6 C3 5.34 3 4.68 3 4 C-2.4844267 3.25669086 -2.4844267 3.25669086 -8 3 C-5.17128122 0.92005972 -3.55490809 0 0 0 Z " fill="#20133C" transform="translate(193,170)"/>
<path d="M0 0 C1.875 0.75 1.875 0.75 4 2 C4.2784375 2.6496875 4.556875 3.299375 4.84375 3.96875 C6.37978342 6.66718708 7.68824578 6.91092736 10.625 7.75 C11.85089844 8.11351563 11.85089844 8.11351563 13.1015625 8.484375 C13.72804687 8.65453125 14.35453125 8.8246875 15 9 C15 9.33 15 9.66 15 10 C17.475 10.495 17.475 10.495 20 11 C20 11.33 20 11.66 20 12 C15.37069408 12.37034447 11.97317976 12.48658988 7.75 10.375 C4.70793836 7.74776495 2.38831498 5.23124967 0 2 C0 1.34 0 0.68 0 0 Z " fill="#7F3D4A" transform="translate(136,100)"/>
<path d="M0 0 C0.66 0.33 1.32 0.66 2 1 C1.37609375 1.47953125 0.7521875 1.9590625 0.109375 2.453125 C-2.82051738 5.99069876 -3.12109028 9.28844045 -3.75 13.75 C-3.87503906 14.54277344 -4.00007813 15.33554688 -4.12890625 16.15234375 C-4.43385652 18.0993339 -4.71891232 20.04942187 -5 22 C-7.70518058 17.94222914 -7.77669105 14.76780642 -7 10 C-5.23953532 6.15184672 -2.98564003 2.98564003 0 0 Z " fill="#6E1376" transform="translate(95,80)"/>
<path d="M0 0 C0.66 0.33 1.32 0.66 2 1 C1.82132624 5.55618095 1.43997667 7.51909527 -1.6875 10.9375 C-5.33592584 13.20916137 -6.8124623 13.89096547 -11 13 C-13.875 10.5 -13.875 10.5 -16 8 C-15.01 8 -14.02 8 -13 8 C-12.67 8.66 -12.34 9.32 -12 10 C-10.10466658 10.46523063 -10.10466658 10.46523063 -7.9375 10.625 C-6.638125 10.74875 -5.33875 10.8725 -4 11 C-4 10.34 -4 9.68 -4 9 C-3.34 9 -2.68 9 -2 9 C-1.34 6.03 -0.68 3.06 0 0 Z " fill="#AB26B7" transform="translate(73,52)"/>
<path d="M0 0 C0.66 0.33 1.32 0.66 2 1 C2.6328125 3.06640625 2.6328125 3.06640625 3.125 5.5625 C3.29257813 6.38878906 3.46015625 7.21507812 3.6328125 8.06640625 C3.75398438 8.70449219 3.87515625 9.34257812 4 10 C3.34 10 2.68 10 2 10 C2.75150023 13.27773504 2.75150023 13.27773504 6 15 C6 15.99 6 16.98 6 18 C3.60919993 17.04367997 2.26781509 16.44059901 0.91015625 14.20703125 C-0.04758569 11.88460982 -0.43012473 9.93108668 -0.6875 7.4375 C-0.77386719 6.67308594 -0.86023438 5.90867188 -0.94921875 5.12109375 C-1 3 -1 3 0 0 Z " fill="#362168" transform="translate(91,138)"/>
<path d="M0 0 C0.99 0 1.98 0 3 0 C2.34 1.65 1.68 3.3 1 5 C-1.64 5 -4.28 5 -7 5 C-6.625 2.5625 -6.625 2.5625 -6 0 C-3.47064411 -1.26467795 -2.65809097 -0.7249339 0 0 Z " fill="#3D227C" transform="translate(153,58)"/>
<path d="M0 0 C0.66 0.33 1.32 0.66 2 1 C1.649375 1.825 1.29875 2.65 0.9375 3.5 C-0.3104924 8.15917163 -0.21509737 12.56980526 2 17 C-0.33028092 16.06788763 -1.75891532 15.30996602 -3.3125 13.3125 C-4.31999941 9.92363835 -3.79267085 7.41458212 -3 4 C-1.4375 1.5625 -1.4375 1.5625 0 0 Z " fill="#763A47" transform="translate(185,47)"/>
<path d="M0 0 C0.66 0.33 1.32 0.66 2 1 C1.835 2.010625 1.67 3.02125 1.5 4.0625 C1.03014231 7.76262933 0.92400151 11.27607391 1 15 C-0.32 14.34 -1.64 13.68 -3 13 C-2.88490339 11.58249437 -2.75746342 10.16598831 -2.625 8.75 C-2.55539063 7.96109375 -2.48578125 7.1721875 -2.4140625 6.359375 C-1.98492887 3.914123 -1.21399362 2.15163097 0 0 Z " fill="#E66D8B" transform="translate(139,87)"/>
<path d="M0 0 C1.71875 1.51953125 1.71875 1.51953125 3 3 C2.00419922 3.07347656 2.00419922 3.07347656 0.98828125 3.1484375 C-5.7112236 3.71125812 -5.7112236 3.71125812 -12 6 C-9.45602595 0.12929064 -6.16672168 -0.55060015 0 0 Z " fill="#231643" transform="translate(153,45)"/>
<path d="M0 0 C1.4375 2.125 1.4375 2.125 2 4 C0.35 3.67 -1.3 3.34 -3 3 C-3 2.34 -3 1.68 -3 1 C-8.7974423 0.75571657 -8.7974423 0.75571657 -14 3 C-12.60699286 0.84083893 -11.57644865 -0.71177568 -9.25 -1.875 C-5.80601105 -2.06633272 -3.19506769 -1.24252632 0 0 Z " fill="#753B46" transform="translate(114,172)"/>
<path d="M0 0 C0.99 0.33 1.98 0.66 3 1 C3 3.64 3 6.28 3 9 C1.68 9.33 0.36 9.66 -1 10 C-1.125 2.25 -1.125 2.25 0 0 Z " fill="#D010E0" transform="translate(154,175)"/>
<path d="M0 0 C0.66 0.33 1.32 0.66 2 1 C0.625 3.5 0.625 3.5 -1 6 C-1.66 6 -2.32 6 -3 6 C-3 10.95 -3 15.9 -3 21 C-5 19 -5 19 -5.265625 16.828125 C-5.1971831 5.53521127 -5.1971831 5.53521127 -1.375 1.125 C-0.92125 0.75375 -0.4675 0.3825 0 0 Z " fill="#8D1E9B" transform="translate(141,127)"/>
<path d="M0 0 C0.99 0.33 1.98 0.66 3 1 C3 5.29 3 9.58 3 14 C2.01 14 1.02 14 0 14 C-0.33 14.66 -0.66 15.32 -1 16 C-1 14.68 -1 13.36 -1 12 C-0.34 12 0.32 12 1 12 C0.67 8.04 0.34 4.08 0 0 Z " fill="#B41EC2" transform="translate(118,88)"/>
<path d="M0 0 C0.66 0 1.32 0 2 0 C1.51113445 4.28127713 0.38573844 6.09202543 -2.875 8.875 C-3.57367188 9.49117187 -4.27234375 10.10734375 -4.9921875 10.7421875 C-5.65476563 11.15726563 -6.31734375 11.57234375 -7 12 C-7.99 11.67 -8.98 11.34 -10 11 C-9.0409375 10.5978125 -9.0409375 10.5978125 -8.0625 10.1875 C-5.66868314 9.11332248 -5.66868314 9.11332248 -5 6 C-4.34 6 -3.68 6 -3 6 C-2.67 5.01 -2.34 4.02 -2 3 C-1.34 3 -0.68 3 0 3 C0 2.01 0 1.02 0 0 Z " fill="#783B47" transform="translate(166,99)"/>
<path d="M0 0 C0.66 0.33 1.32 0.66 2 1 C1.34 1.66 0.68 2.32 0 3 C-0.16706799 5.14550973 -0.16706799 5.14550973 0 7.5 C0.125 9.90625 0.125 9.90625 0 12 C-0.66 12.66 -1.32 13.32 -2 14 C-3.6857258 11.42183113 -4.00779313 10.12469007 -3.8125 7 C-2.99589479 3.98484231 -2.04996025 2.31734637 0 0 Z " fill="#211543" transform="translate(59,89)"/>
<path d="M0 0 C0.33 0.99 0.66 1.98 1 3 C0.01 3.33 -0.98 3.66 -2 4 C-1.690625 4.9075 -1.38125 5.815 -1.0625 6.75 C-0.2727737 9.16563338 0.42949297 11.52780285 1 14 C-2 13 -2 13 -3.25 10.8125 C-4.14865784 7.4425331 -3.96475302 5.33952967 -3 2 C-2.01 1.34 -1.02 0.68 0 0 Z " fill="#382562" transform="translate(144,49)"/>
<path d="M0 0 C3.88602985 0.57570813 6.11172864 2.41575721 9 5 C9.99 6.485 9.99 6.485 11 8 C10.67 8.99 10.34 9.98 10 11 C10 10.34 10 9.68 10 9 C9.4225 8.773125 8.845 8.54625 8.25 8.3125 C5.42214408 6.66291738 3.95217231 4.60289641 2 2 C1.34 1.34 0.68 0.68 0 0 Z " fill="#6B1276" transform="translate(157,125)"/>
<path d="M0 0 C0.99 0 1.98 0 3 0 C3.33 0.99 3.66 1.98 4 3 C3.34 3 2.68 3 2 3 C2.66 4.98 3.32 6.96 4 9 C3.01 9.33 2.02 9.66 1 10 C-0.80411967 7.24075815 -1.0127245 6.11027897 -0.625 2.75 C-0.41875 1.8425 -0.2125 0.935 0 0 Z " fill="#DB0AEE" transform="translate(60,51)"/>
<path d="M0 0 C2.375 -0.1875 2.375 -0.1875 5 0 C7.30143236 3.45214853 7.13833854 4.23479324 6.625 8.1875 C6.51414063 9.08855469 6.40328125 9.98960938 6.2890625 10.91796875 C6.19367188 11.60503906 6.09828125 12.29210938 6 13 C5.34 13 4.68 13 4 13 C4 9.37 4 5.74 4 2 C2.68 2 1.36 2 0 2 C0 1.34 0 0.68 0 0 Z " fill="#3B266D" transform="translate(151,48)"/>
<path d="M0 0 C0.69222656 0.06703125 1.38445312 0.1340625 2.09765625 0.203125 C3.9375 0.75 3.9375 0.75 5.9375 3.75 C4.94169922 3.62431641 4.94169922 3.62431641 3.92578125 3.49609375 C-2.60970848 2.69574958 -2.60970848 2.69574958 -9.0625 3.75 C-6.42860393 -0.2008441 -4.46797233 -0.50108101 0 0 Z " fill="#82404F" transform="translate(109.0625,45.25)"/>
<path d="M0 0 C0 0.33 0 0.66 0 1 C-4.84241633 2.33583899 -8.93437617 3.25328119 -14 3 C-13 1 -13 1 -10.375 -0.1875 C-6.55495663 -1.10714007 -3.82452397 -0.76490479 0 0 Z " fill="#6A1171" transform="translate(157,124)"/>
<path d="M0 0 C0.99 0.495 0.99 0.495 2 1 C3.37634409 7.99641577 3.37634409 7.99641577 2.0625 11.5 C1.711875 11.995 1.36125 12.49 1 13 C0.67 13 0.34 13 0 13 C0 8.71 0 4.42 0 0 Z " fill="#7E404C" transform="translate(199,49)"/>
<path d="M0 0 C2.375 2 2.375 2 4 4 C2.37419034 3.88601335 0.74932843 3.75844341 -0.875 3.625 C-1.77992188 3.55539063 -2.68484375 3.48578125 -3.6171875 3.4140625 C-6 3 -6 3 -8 1 C-5.15916359 -0.42041821 -3.14522722 -0.31452272 0 0 Z " fill="#894452" transform="translate(195,45)"/>
<path d="M0 0 C0.33 0 0.66 0 1 0 C1.55353075 11.70615034 1.55353075 11.70615034 -2 16 C-3.3721192 12.29527816 -2.4863484 10.55072117 -1 7 C-0.6186926 4.67402489 -0.27539746 2.34087842 0 0 Z " fill="#621172" transform="translate(168,136)"/>
<path d="M0 0 C3 2 3 2 3.8125 5.875 C4.1221501 9.15014529 3.96077495 11.23184713 2 14 C1.67 14 1.34 14 1 14 C1.01160156 13.24074219 1.02320313 12.48148438 1.03515625 11.69921875 C1.04417969 10.70535156 1.05320313 9.71148437 1.0625 8.6875 C1.07990234 7.20830078 1.07990234 7.20830078 1.09765625 5.69921875 C1.12329862 2.90036151 1.12329862 2.90036151 0 0 Z " fill="#1B1037" transform="translate(156,48)"/>
<path d="M0 0 C1.65 0 3.3 0 5 0 C5 1.32 5 2.64 5 4 C1.25 5.125 1.25 5.125 -1 4 C-0.67 2.68 -0.34 1.36 0 0 Z " fill="#B722C2" transform="translate(105,197)"/>
<path d="M0 0 C1.65 0.33 3.3 0.66 5 1 C5 2.32 5 3.64 5 5 C2.03 4.505 2.03 4.505 -1 4 C-0.67 2.68 -0.34 1.36 0 0 Z " fill="#B66274" transform="translate(146,197)"/>
<path d="M0 0 C2 3 2 3 1.375 6.5625 C0 10 0 10 -2.125 11.4375 C-2.74375 11.623125 -3.3625 11.80875 -4 12 C-4 11.01 -4 10.02 -4 9 C-3.01 9 -2.02 9 -1 9 C-0.67 6.03 -0.34 3.06 0 0 Z " fill="#261745" transform="translate(74,93)"/>
<path d="M0 0 C2 2 2 2 2.375 4.875 C1.92491816 8.62568199 0.87398748 9.66488517 -2 12 C-1.855625 11.319375 -1.71125 10.63875 -1.5625 9.9375 C-0.93054091 6.63726918 -0.45686059 3.32855574 0 0 Z " fill="#64136D" transform="translate(74,176)"/>
<path d="M0 0 C1.36421031 2.72842061 0.87807211 4.60953318 0.5625 7.625 C0.40974609 9.12933594 0.40974609 9.12933594 0.25390625 10.6640625 C0.17011719 11.43492187 0.08632812 12.20578125 0 13 C-0.66 12.67 -1.32 12.34 -2 12 C-3.00376838 7.9849265 -3.40779739 5.83332509 -1.5625 2.0625 C-1.046875 1.381875 -0.53125 0.70125 0 0 Z " fill="#590D60" transform="translate(142,174)"/>
<path d="M0 0 C0.66 0 1.32 0 2 0 C2.6875 2.3125 2.6875 2.3125 3 5 C1.5625 6.8125 1.5625 6.8125 0 8 C-0.33 7.34 -0.66 6.68 -1 6 C-0.67 5.34 -0.34 4.68 0 4 C-0.66 4 -1.32 4 -2 4 C-1.34 2.68 -0.68 1.36 0 0 Z " fill="#DC0BEC" transform="translate(162,142)"/>
<path d="M0 0 C3 2 3 2 3.8125 5.375 C3.99184124 8.84226401 3.90368048 10.20046988 2 13 C0.65754108 10.31508215 0.97450627 7.9149467 1.0625 4.97265625 C1.08733016 2.7852789 1.08733016 2.7852789 0 0 Z " fill="#1D1239" transform="translate(72,132)"/>
<path d="M0 0 C3.94463583 3.77312992 3.94463583 3.77312992 4.09765625 7.1640625 C4.08605469 7.97617188 4.07445312 8.78828125 4.0625 9.625 C4.05347656 10.44226563 4.04445312 11.25953125 4.03515625 12.1015625 C4.02355469 12.72804688 4.01195312 13.35453125 4 14 C3.67 14 3.34 14 3 14 C2.87625 12.906875 2.7525 11.81375 2.625 10.6875 C2.24535199 6.92618198 2.24535199 6.92618198 0 4 C0 2.68 0 1.36 0 0 Z " fill="#67313C" transform="translate(165,85)"/>
<path d="M0 0 C1.99097846 2.98646769 2.94124926 5.59687262 4 9 C5.98 9 7.96 9 10 9 C10 9.33 10 9.66 10 10 C6.6875 10.3125 6.6875 10.3125 3 10 C0.65502127 7.35244337 0.04708671 5.7063007 -0.1875 2.1875 C-0.125625 1.465625 -0.06375 0.74375 0 0 Z " fill="#DC718A" transform="translate(184,54)"/>
<path d="M0 0 C2.31 0 4.62 0 7 0 C7 0.66 7 1.32 7 2 C5.35 2 3.7 2 2 2 C2 2.66 2 3.32 2 4 C1.01 4 0.02 4 -1 4 C-0.67 2.68 -0.34 1.36 0 0 Z " fill="#C01CCE" transform="translate(146,172)"/>
<path d="M0 0 C0.66 0 1.32 0 2 0 C0.73882275 3.88862987 -0.45264167 5.89375599 -4 8 C-4.66 8 -5.32 8 -6 8 C-5.67 7.01 -5.34 6.02 -5 5 C-4.34 5 -3.68 5 -3 5 C-2.67 4.01 -2.34 3.02 -2 2 C-1.34 2 -0.68 2 0 2 C0 1.34 0 0.68 0 0 Z " fill="#781680" transform="translate(118,102)"/>
<path d="M0 0 C1.32 0 2.64 0 4 0 C4.33 1.65 4.66 3.3 5 5 C3.35 5 1.7 5 0 5 C0 3.35 0 1.7 0 0 Z " fill="#BB20C7" transform="translate(219,94)"/>
<path d="M0 0 C1.65 0.33 3.3 0.66 5 1 C4.34 1.66 3.68 2.32 3 3 C1.68 3 0.36 3 -1 3 C-1.33 4.32 -1.66 5.64 -2 7 C-2.33 6.01 -2.66 5.02 -3 4 C-1.5625 1.8125 -1.5625 1.8125 0 0 Z " fill="#1C143A" transform="translate(219,135)"/>
<path d="M0 0 C3.3 0 6.6 0 10 0 C10.66 1.32 11.32 2.64 12 4 C11.34 3.67 10.68 3.34 10 3 C6.13938967 1.71312989 3.05849717 1.86242382 -1 2 C-0.67 1.34 -0.34 0.68 0 0 Z " fill="#A65667" transform="translate(188,130)"/>
<path d="M0 0 C2.31 0.33 4.62 0.66 7 1 C7 1.99 7 2.98 7 4 C4.36 3.34 1.72 2.68 -1 2 C-0.67 1.34 -0.34 0.68 0 0 Z " fill="#BB1ECA" transform="translate(152,125)"/>
<path d="M0 0 C0.99 0 1.98 0 3 0 C3.33 1.32 3.66 2.64 4 4 C5.32 4.33 6.64 4.66 8 5 C7.67 5.66 7.34 6.32 7 7 C4.13302508 5.71480435 2.02392288 4.42870746 0 2 C0 1.34 0 0.68 0 0 Z " fill="#751380" transform="translate(90,102)"/>
<path d="M0 0 C1.32 0 2.64 0 4 0 C4 0.66 4 1.32 4 2 C6.64 2.33 9.28 2.66 12 3 C12 3.33 12 3.66 12 4 C4.61538462 4.49230769 4.61538462 4.49230769 1.5 2 C1.005 1.34 0.51 0.68 0 0 Z " fill="#6C1075" transform="translate(142,187)"/>
<path d="M0 0 C2.12046792 3.53411321 2.53199289 6.94393835 3 11 C0.10551918 8.60890715 -0.62813667 6.71863329 -1 3 C-0.67 2.01 -0.34 1.02 0 0 Z " fill="#21153E" transform="translate(182,177)"/>
<path d="M0 0 C2.66735273 2.48952921 4.55746343 4.63408134 6 8 C3.625 7.3125 3.625 7.3125 1 6 C-0.3125 3.375 -0.3125 3.375 -1 1 C-0.67 0.67 -0.34 0.34 0 0 Z " fill="#CE6C85" transform="translate(99,56)"/>
<path d="M0 0 C2 1.3125 2 1.3125 4 3 C4 3.99 4 4.98 4 6 C2.68 5.67 1.36 5.34 0 5 C-0.5625 3.0625 -0.5625 3.0625 -1 1 C-0.67 0.67 -0.34 0.34 0 0 Z " fill="#392566" transform="translate(116,130)"/>
<path d="M0 0 C1.65 0 3.3 0 5 0 C4.67 1.32 4.34 2.64 4 4 C2.68 4 1.36 4 0 4 C0 2.68 0 1.36 0 0 Z " fill="#F36689" transform="translate(186,132)"/>
<path d="M0 0 C0.33 0.66 0.66 1.32 1 2 C-3.455 3.485 -3.455 3.485 -8 5 C-7.34 3.68 -6.68 2.36 -6 1 C-2.875 0.25 -2.875 0.25 0 0 Z " fill="#C119D1" transform="translate(149,126)"/>
<path d="M0 0 C0.33 0 0.66 0 1 0 C1.1875 2.375 1.1875 2.375 1 5 C-2 7 -2 7 -4.1875 6.625 C-4.785625 6.41875 -5.38375 6.2125 -6 6 C-5.34 5.34 -4.68 4.68 -4 4 C-2.68 4 -1.36 4 0 4 C0 2.68 0 1.36 0 0 Z " fill="#5A2A32" transform="translate(38,95)"/>
<path d="M0 0 C0.33 0.99 0.66 1.98 1 3 C-0.65 4.65 -2.3 6.3 -4 8 C-3.6875 5.125 -3.6875 5.125 -3 2 C-2.01 1.34 -1.02 0.68 0 0 Z " fill="#271948" transform="translate(185,91)"/>
<path d="M0 0 C0.99 0.33 1.98 0.66 3 1 C3 2.32 3 3.64 3 5 C1.68 5 0.36 5 -1 5 C-0.67 3.35 -0.34 1.7 0 0 Z " fill="#38266D" transform="translate(149,31)"/>
</svg>
